<?xml version="1.0" encoding="us-ascii" standalone="no"?><svg xmlns="http://www.w3.org/2000/svg" xmlns:xlink="http://www.w3.org/1999/xlink" contentStyleType="text/css" height="720px" preserveAspectRatio="none" style="width:3447px;height:720px;background:#FFFFFF;" version="1.1" viewBox="0 0 3447 720" width="3447px" zoomAndPan="magnify"><defs/><g><!--cluster Mini-jeux--><g id="cluster_Mini-jeux"><path d="M8.5,319.68 L74.5,319.68 A3.75,3.75 0 0 1 77,322.18 L84,341.7786 L2166.5,341.7786 A2.5,2.5 0 0 1 2169,344.2786 L2169,711.1 A2.5,2.5 0 0 1 2166.5,713.6 L8.5,713.6 A2.5,2.5 0 0 1 6,711.1 L6,322.18 A2.5,2.5 0 0 1 8.5,319.68 " fill="none" style="stroke:#000000;stroke-width:1.5;"/><line style="stroke:#000000;stroke-width:1.5;" x1="6" x2="84" y1="341.7786" y2="341.7786"/><text fill="#000000" font-family="sans-serif" font-size="14" font-weight="bold" lengthAdjust="spacing" textLength="65" x="10" y="334.8118">Mini-jeux</text></g><!--cluster Mini-jeux Administration--><g id="cluster_Mini-jeux Administration"><path d="M2195.5,128.6 L2366.5,128.6 A3.75,3.75 0 0 1 2369,131.1 L2376,150.6986 L3437.5,150.6986 A2.5,2.5 0 0 1 3440,153.1986 L3440,427.56 A2.5,2.5 0 0 1 3437.5,430.06 L2195.5,430.06 A2.5,2.5 0 0 1 2193,427.56 L2193,131.1 A2.5,2.5 0 0 1 2195.5,128.6 " fill="none" style="stroke:#000000;stroke-width:1.5;"/><line style="stroke:#000000;stroke-width:1.5;" x1="2193" x2="2376" y1="150.6986" y2="150.6986"/><text fill="#000000" font-family="sans-serif" font-size="14" font-weight="bold" lengthAdjust="spacing" textLength="170" x="2197" y="143.7318">Mini-jeux Administration</text></g><g id="elem_Rejoindre une partie avec un code d'invitation"><ellipse cx="316.9984" cy="389.0277" fill="#F1F1F1" rx="158.7884" ry="34.1577" style="stroke:#181818;stroke-width:0.5;"/><text fill="#000000" font-family="sans-serif" font-size="14" lengthAdjust="spacing" textLength="289" x="172.4984" y="392.1102">Rejoindre une partie avec un code d'invitation</text></g><g id="elem_Acc&#233;der &#224; la liste des jeux"><ellipse cx="610.9967" cy="389.0333" fill="#F1F1F1" rx="99.7667" ry="22.3533" style="stroke:#181818;stroke-width:0.5;"/><text fill="#000000" font-family="sans-serif" font-size="14" lengthAdjust="spacing" textLength="164" x="528.9967" y="392.1159">Acc&#233;der &#224; la liste des jeux</text></g><g id="elem_Se cr&#233;er un compte"><ellipse cx="827.9976" cy="389.0335" fill="#F1F1F1" rx="82.0176" ry="18.8035" style="stroke:#181818;stroke-width:0.5;"/><text fill="#000000" font-family="sans-serif" font-size="14" lengthAdjust="spacing" textLength="124" x="765.9976" y="392.116">Se cr&#233;er un compte</text></g><g id="elem_Choisir un jeu"><ellipse cx="1011.9985" cy="389.0317" fill="#F1F1F1" rx="66.9585" ry="15.7917" style="stroke:#181818;stroke-width:0.5;"/><text fill="#000000" font-family="sans-serif" font-size="14" lengthAdjust="spacing" textLength="87" x="965.6316" y="392.8194">Choisir un jeu</text></g><g id="elem_chosir de fa&#231;on al&#233;atoire"><ellipse cx="118.0039" cy="528.9288" fill="#F1F1F1" rx="96.1439" ry="21.6288" style="stroke:#181818;stroke-width:0.5;"/><text fill="#000000" font-family="sans-serif" font-size="14" lengthAdjust="spacing" textLength="156" x="40.0039" y="532.0113">chosir de fa&#231;on al&#233;atoire</text></g><g id="elem_choisir dans la liste"><ellipse cx="329.0032" cy="528.9306" fill="#F1F1F1" rx="80.3032" ry="18.4606" style="stroke:#181818;stroke-width:0.5;"/><text fill="#000000" font-family="sans-serif" font-size="14" lengthAdjust="spacing" textLength="120" x="269.0032" y="532.0132">choisir dans la liste</text></g><g id="elem_Cr&#233;er une partie"><ellipse cx="1151.9959" cy="528.9292" fill="#F1F1F1" rx="73.5959" ry="17.1192" style="stroke:#181818;stroke-width:0.5;"/><text fill="#000000" font-family="sans-serif" font-size="14" lengthAdjust="spacing" textLength="104" x="1099.9959" y="532.0117">Cr&#233;er une partie</text></g><g id="elem_g&#233;n&#233;rer un code d'invitation"><ellipse cx="1152.0035" cy="666.0407" fill="#F1F1F1" rx="105.2535" ry="23.4507" style="stroke:#181818;stroke-width:0.5;"/><text fill="#000000" font-family="sans-serif" font-size="14" lengthAdjust="spacing" textLength="176" x="1064.0035" y="669.1232">g&#233;n&#233;rer un code d'invitation</text></g><g id="elem_configurer la th&#233;matique des scientifiques"><ellipse cx="1437.9993" cy="666.0379" fill="#F1F1F1" rx="145.7893" ry="31.5579" style="stroke:#181818;stroke-width:0.5;"/><text fill="#000000" font-family="sans-serif" font-size="14" lengthAdjust="spacing" textLength="262" x="1306.9993" y="669.1204">configurer la th&#233;matique des scientifiques</text></g><g id="elem_configure la difficult&#233; des scientifiques"><ellipse cx="876.9954" cy="666.0391" fill="#F1F1F1" rx="134.7954" ry="29.3591" style="stroke:#181818;stroke-width:0.5;"/><text fill="#000000" font-family="sans-serif" font-size="14" lengthAdjust="spacing" textLength="239" x="757.4954" y="669.1216">configure la difficult&#233; des scientifiques</text></g><g id="elem_Lancer une partie"><ellipse cx="629.9974" cy="666.0435" fill="#F1F1F1" rx="76.9174" ry="17.7835" style="stroke:#181818;stroke-width:0.5;"/><text fill="#000000" font-family="sans-serif" font-size="14" lengthAdjust="spacing" textLength="112" x="573.9974" y="669.126">Lancer une partie</text></g><g id="elem_Saisir pseudo"><ellipse cx="1684.9956" cy="666.0391" fill="#F1F1F1" rx="66.5956" ry="15.7191" style="stroke:#181818;stroke-width:0.5;"/><text fill="#000000" font-family="sans-serif" font-size="14" lengthAdjust="spacing" textLength="86" x="1638.9956" y="669.855">Saisir pseudo</text></g><g id="elem_notePseudo"><path d="M1260.5,516.46 L1260.5,541.4087 A0,0 0 0 0 1260.5,541.4087 L1484.7,541.4087 L1662.35,650.81 L1492.7,541.4087 L1679.5,541.4087 A0,0 0 0 0 1679.5,541.4087 L1679.5,526.46 L1669.5,516.46 L1260.5,516.46 A0,0 0 0 0 1260.5,516.46 " fill="#FEFFDD" style="stroke:#181818;stroke-width:0.5;"/><path d="M1669.5,516.46 L1669.5,526.46 L1679.5,526.46 L1669.5,516.46 " fill="#FEFFDD" style="stroke:#181818;stroke-width:0.5;"/><text fill="#000000" font-family="sans-serif" font-size="13" lengthAdjust="spacing" textLength="398" x="1266.5" y="533.6538">Pour l'utilisateur connect&#233; : utilisera le pseudo associ&#233; &#224; son compte</text></g><g id="elem_noteUC"><path d="M444.5,516.46 L444.5,541.4087 A0,0 0 0 0 444.5,541.4087 L730.28,541.4087 L644.25,648.15 L738.28,541.4087 L1043.5,541.4087 A0,0 0 0 0 1043.5,541.4087 L1043.5,526.46 L1033.5,516.46 L444.5,516.46 A0,0 0 0 0 444.5,516.46 " fill="#FEFFDD" style="stroke:#181818;stroke-width:0.5;"/><path d="M1033.5,516.46 L1033.5,526.46 L1043.5,526.46 L1033.5,516.46 " fill="#FEFFDD" style="stroke:#181818;stroke-width:0.5;"/><text fill="#000000" font-family="sans-serif" font-size="13" lengthAdjust="spacing" textLength="578" x="450.5" y="533.6538">Pour l'utilisateur connect&#233; : on garde les scientifiques d&#233;couverts pendant la partie dans son compte</text></g><g id="elem_Se d&#233;connecter"><ellipse cx="1322.0036" cy="389.0327" fill="#F1F1F1" rx="71.9636" ry="16.7927" style="stroke:#181818;stroke-width:0.5;"/><text fill="#000000" font-family="sans-serif" font-size="14" lengthAdjust="spacing" textLength="100" x="1271.7529" y="392.185">Se d&#233;connecter</text></g><g id="elem_Saisir son pseudo"><ellipse cx="1505.9973" cy="389.0275" fill="#F1F1F1" rx="77.3373" ry="17.8675" style="stroke:#181818;stroke-width:0.5;"/><text fill="#000000" font-family="sans-serif" font-size="14" lengthAdjust="spacing" textLength="113" x="1449.4973" y="392.11">Saisir son pseudo</text></g><g id="elem_Se connecter"><ellipse cx="1779.9961" cy="528.9252" fill="#F1F1F1" rx="65.8761" ry="15.5752" style="stroke:#181818;stroke-width:0.5;"/><text fill="#000000" font-family="sans-serif" font-size="14" lengthAdjust="spacing" textLength="84" x="1734.9961" y="532.7411">Se connecter</text></g><g id="elem_Supprimer son compte"><ellipse cx="1708.0038" cy="389.0268" fill="#F1F1F1" rx="89.8838" ry="20.3768" style="stroke:#181818;stroke-width:0.5;"/><text fill="#000000" font-family="sans-serif" font-size="14" lengthAdjust="spacing" textLength="142" x="1637.0038" y="392.1093">Supprimer son compte</text></g><g id="elem_Acc&#233;der &#224; la liste des scientifiques d&#233;couverts"><ellipse cx="1993.0047" cy="389.0309" fill="#F1F1F1" rx="159.7547" ry="34.3509" style="stroke:#181818;stroke-width:0.5;"/><text fill="#000000" font-family="sans-serif" font-size="14" lengthAdjust="spacing" textLength="291" x="1847.5047" y="392.1135">Acc&#233;der &#224; la liste des scientifiques d&#233;couverts</text></g><g id="elem_Afficher la fiche d&#233;taill&#233; du scientifique"><ellipse cx="2016.998" cy="528.9296" fill="#F1F1F1" rx="135.748" ry="29.5496" style="stroke:#181818;stroke-width:0.5;"/><text fill="#000000" font-family="sans-serif" font-size="14" lengthAdjust="spacing" textLength="241" x="1896.498" y="532.0121">Afficher la fiche d&#233;taill&#233; du scientifique</text></g><g id="elem_Se d&#233;connecter du panel"><ellipse cx="2305.9989" cy="210.6398" fill="#F1F1F1" rx="97.4989" ry="21.8998" style="stroke:#181818;stroke-width:0.5;"/><text fill="#000000" font-family="sans-serif" font-size="14" lengthAdjust="spacing" textLength="159" x="2226.4989" y="213.7223">Se d&#233;connecter du panel</text></g><g id="elem_Lister les scientifiques"><ellipse cx="2526.9972" cy="210.6414" fill="#F1F1F1" rx="88.5572" ry="20.1114" style="stroke:#181818;stroke-width:0.5;"/><text fill="#000000" font-family="sans-serif" font-size="14" lengthAdjust="spacing" textLength="139" x="2457.4972" y="213.724">Lister les scientifiques</text></g><g id="elem_Se connecter en tant qu'admin"><ellipse cx="2962.9983" cy="389.0337" fill="#F1F1F1" rx="113.1183" ry="25.0237" style="stroke:#181818;stroke-width:0.5;"/><text fill="#000000" font-family="sans-serif" font-size="14" lengthAdjust="spacing" textLength="193" x="2866.4983" y="392.1162">Se connecter en tant qu'admin</text></g><g id="elem_Ajouter Scientifique"><ellipse cx="2317.9987" cy="389.0317" fill="#F1F1F1" rx="81.1587" ry="18.6317" style="stroke:#181818;stroke-width:0.5;"/><text fill="#000000" font-family="sans-serif" font-size="14" lengthAdjust="spacing" textLength="122" x="2256.9987" y="392.1143">Ajouter Scientifique</text></g><g id="elem_Modifier Scientifique"><ellipse cx="2517.0021" cy="389.0324" fill="#F1F1F1" rx="83.3121" ry="19.0624" style="stroke:#181818;stroke-width:0.5;"/><text fill="#000000" font-family="sans-serif" font-size="14" lengthAdjust="spacing" textLength="127" x="2453.5021" y="392.1149">Modifier Scientifique</text></g><g id="elem_Supprimer Scientifique"><ellipse cx="2725.0038" cy="389.0268" fill="#F1F1F1" rx="89.8838" ry="20.3768" style="stroke:#181818;stroke-width:0.5;"/><text fill="#000000" font-family="sans-serif" font-size="14" lengthAdjust="spacing" textLength="142" x="2654.0038" y="392.1093">Supprimer Scientifique</text></g><g id="elem_Lister les scientifiques qui posent le plus de probl&#232;mes aux joueurs"><ellipse cx="2873.9991" cy="210.6418" fill="#F1F1F1" rx="223.2091" ry="47.0418" style="stroke:#181818;stroke-width:0.5;"/><text fill="#000000" font-family="sans-serif" font-size="14" lengthAdjust="spacing" textLength="421" x="2663.4991" y="213.7243">Lister les scientifiques qui posent le plus de probl&#232;mes aux joueurs</text></g><g id="elem_Lister les statistiques d'utilisation des jeux"><ellipse cx="3277.9993" cy="210.6379" fill="#F1F1F1" rx="145.7893" ry="31.5579" style="stroke:#181818;stroke-width:0.5;"/><text fill="#000000" font-family="sans-serif" font-size="14" lengthAdjust="spacing" textLength="262" x="3146.9993" y="213.7204">Lister les statistiques d'utilisation des jeux</text></g><!--entity u--><g id="elem_u"><ellipse cx="828" cy="181.09" fill="#F1F1F1" rx="8" ry="8" style="stroke:#181818;stroke-width:0.5;"/><path d="M828,189.09 L828,216.09 M815,197.09 L841,197.09 M828,216.09 L815,231.09 M828,216.09 L841,231.09 " fill="none" style="stroke:#181818;stroke-width:0.5;"/><text fill="#000000" font-family="sans-serif" font-size="14" lengthAdjust="spacing" textLength="62" x="797" y="245.7218">Utilisateur</text></g><!--entity uc--><g id="elem_uc"><ellipse cx="1506" cy="14" fill="#F1F1F1" rx="8" ry="8" style="stroke:#181818;stroke-width:0.5;"/><path d="M1506,22 L1506,49 M1493,30 L1519,30 M1506,49 L1493,64 M1506,49 L1519,64 " fill="none" style="stroke:#181818;stroke-width:0.5;"/><text fill="#000000" font-family="sans-serif" font-size="14" lengthAdjust="spacing" textLength="146" x="1433" y="78.6318">Utilisateur avec compte</text></g><!--entity admin--><g id="elem_admin"><ellipse cx="2700" cy="14" fill="#F1F1F1" rx="8" ry="8" style="stroke:#181818;stroke-width:0.5;"/><path d="M2700,22 L2700,49 M2687,30 L2713,30 M2700,49 L2687,64 M2700,49 L2713,64 " fill="none" style="stroke:#181818;stroke-width:0.5;"/><text fill="#000000" font-family="sans-serif" font-size="14" lengthAdjust="spacing" textLength="91" x="2654.5" y="78.6318">Administrateur</text></g><!--reverse link uc to u--><g id="link_uc_u"><path d="M1415.311,66.6287 C1268.581,102.3587 961.32,177.18 859.3,202.02 " fill="none" id="uc-backto-u" style="stroke:#181818;stroke-width:1.0;"/><polygon fill="none" points="1432.8,62.37,1413.8915,60.7991,1416.7306,72.4584,1432.8,62.37" style="stroke:#181818;stroke-width:1.0;"/></g><!--link u to Rejoindre une partie avec un code d'invitation--><g id="link_u_Rejoindre une partie avec un code d'invitation"><path d="M796.75,219.7 C737.17,235.34 603.49,271.82 494,311.68 C456.58,325.31 421.1767,340.3093 388.1467,355.0893 " fill="none" id="u-to-Rejoindre une partie avec un code d'invitation" style="stroke:#181818;stroke-width:1.0;"/><polygon fill="#181818" points="382.67,357.54,392.5188,357.5151,387.2339,355.4978,389.2513,350.2129,382.67,357.54" style="stroke:#181818;stroke-width:1.0;"/></g><!--link u to Acc?der ? la liste des jeux--><g id="link_u_Acc&#233;der &#224; la liste des jeux"><path d="M796.91,236.91 C753.78,271.97 681.2655,330.915 641.2655,363.435 " fill="none" id="u-to-Acc&#233;der &#224; la liste des jeux" style="stroke:#181818;stroke-width:1.0;"/><polygon fill="#181818" points="636.61,367.22,646.1166,364.6463,640.4896,364.0659,641.07,358.4389,636.61,367.22" style="stroke:#181818;stroke-width:1.0;"/></g><!--link u to Se cr?er un compte--><g id="link_u_Se cr&#233;er un compte"><path d="M828,249.05 C828,286.27 828,335.78 828,364.07 " fill="none" id="u-to-Se cr&#233;er un compte" style="stroke:#181818;stroke-width:1.0;"/><polygon fill="#181818" points="828,370.07,832,361.07,828,365.07,824,361.07,828,370.07" style="stroke:#181818;stroke-width:1.0;"/></g><!--link u to Choisir un jeu--><g id="link_u_Choisir un jeu"><path d="M859.21,241.56 C899.2,279.9 962.5888,340.6678 992.5888,369.4278 " fill="none" id="u-to-Choisir un jeu" style="stroke:#181818;stroke-width:1.0;"/><polygon fill="#181818" points="996.92,373.58,993.1913,364.4643,993.3107,370.1198,987.6551,370.2392,996.92,373.58" style="stroke:#181818;stroke-width:1.0;"/></g><!--reverse link Choisir un jeu to chosir de fa?on al?atoire--><g id="link_Choisir un jeu_chosir de fa&#231;on al&#233;atoire"><path d="M977.5999,414.7014 C961.2599,425.9414 951.72,430.63 928,438.06 C890.91,449.68 269.33,492.9 231,499.39 C213.04,502.42 193.75,506.85 176.27,511.32 " fill="none" id="Choisir un jeu-backto-chosir de fa&#231;on al&#233;atoire" style="stroke:#181818;stroke-width:1.0;"/><polygon fill="none" points="992.43,404.5,974.1994,409.758,981.0004,419.6447,992.43,404.5" style="stroke:#181818;stroke-width:1.0;"/></g><!--reverse link Choisir un jeu to choisir dans la liste--><g id="link_Choisir un jeu_choisir dans la liste"><path d="M977.1249,414.6014 C960.7449,425.6914 951.44,430.28 928,438.06 C715.1,508.75 646.74,454.24 427,499.39 C409.29,503.02 390.14,508.29 373.5,513.32 " fill="none" id="Choisir un jeu-backto-choisir dans la liste" style="stroke:#181818;stroke-width:1.0;"/><polygon fill="none" points="992.03,404.51,973.7611,409.6331,980.4887,419.5698,992.03,404.51" style="stroke:#181818;stroke-width:1.0;"/></g><!--reverse link Choisir un jeu to Cr?er une partie--><g id="link_Choisir un jeu_Cr&#233;er une partie"><path d="M1031.2547,409.0003 C1057.7847,435.1303 1108.5,485.08 1135.84,512.01 " fill="none" id="Choisir un jeu-backto-Cr&#233;er une partie" style="stroke:#181818;stroke-width:1.0;stroke-dasharray:7.0,7.0;"/><polygon fill="#181818" points="1026.98,404.79,1030.5853,413.9553,1030.5423,408.2986,1036.199,408.2556,1026.98,404.79" style="stroke:#181818;stroke-width:1.0;"/><text fill="#000000" font-family="sans-serif" font-size="13" lengthAdjust="spacing" textLength="55" x="1091" y="466.5838">&#171;include&#187;</text></g><!--reverse link Cr?er une partie to g?n?rer un code d'invitation--><g id="link_Cr&#233;er une partie_g&#233;n&#233;rer un code d'invitation"><path d="M1152,552.5 C1152,576.6 1152,615.4 1152,642.49 " fill="none" id="Cr&#233;er une partie-backto-g&#233;n&#233;rer un code d'invitation" style="stroke:#181818;stroke-width:1.0;stroke-dasharray:7.0,7.0;"/><polygon fill="#181818" points="1152,546.5,1148,555.5,1152,551.5,1156,555.5,1152,546.5" style="stroke:#181818;stroke-width:1.0;"/><text fill="#000000" font-family="sans-serif" font-size="13" lengthAdjust="spacing" textLength="55" x="1153" y="601.6738">&#171;include&#187;</text></g><!--link Cr?er une partie to configurer la th?matique des scientifiques--><g id="link_Cr&#233;er une partie_configurer la th&#233;matique des scientifiques"><path d="M1183.43,544.78 C1230.22,566.89 1313.6448,606.2973 1373.0048,634.3373 " fill="none" id="Cr&#233;er une partie-to-configurer la th&#233;matique des scientifiques" style="stroke:#181818;stroke-width:1.0;stroke-dasharray:7.0,7.0;"/><polygon fill="#181818" points="1378.43,636.9,1372.0007,629.4392,1373.909,634.7644,1368.5838,636.6727,1378.43,636.9" style="stroke:#181818;stroke-width:1.0;"/><text fill="#000000" font-family="sans-serif" font-size="13" lengthAdjust="spacing" textLength="60" x="1304" y="601.6738">&#171;extends&#187;</text></g><!--link Cr?er une partie to configure la difficult? des scientifiques--><g id="link_Cr&#233;er une partie_configure la difficult&#233; des scientifiques"><path d="M1121.52,544.91 C1075.44,567.55 992.7852,608.1543 935.8752,636.1143 " fill="none" id="Cr&#233;er une partie-to-configure la difficult&#233; des scientifiques" style="stroke:#181818;stroke-width:1.0;stroke-dasharray:7.0,7.0;"/><polygon fill="#181818" points="930.49,638.76,940.3316,638.3815,934.9776,636.5552,936.8039,631.2013,930.49,638.76" style="stroke:#181818;stroke-width:1.0;"/><text fill="#000000" font-family="sans-serif" font-size="13" lengthAdjust="spacing" textLength="60" x="1031" y="601.6738">&#171;extends&#187;</text></g><!--link Cr?er une partie to Lancer une partie--><g id="link_Cr&#233;er une partie_Lancer une partie"><path d="M1110.99,543.58 C1095.41,548.56 1077.47,554.05 1061,558.48 C913.17,598.32 872.69,594.11 725,634.48 C707.45,639.28 694.0193,643.4044 677.5493,648.8244 " fill="none" id="Cr&#233;er une partie-to-Lancer une partie" style="stroke:#181818;stroke-width:1.0;stroke-dasharray:7.0,7.0;"/><polygon fill="#181818" points="671.85,650.7,681.6494,651.6862,676.5994,649.137,679.1486,644.0871,671.85,650.7" style="stroke:#181818;stroke-width:1.0;"/><text fill="#000000" font-family="sans-serif" font-size="13" lengthAdjust="spacing" textLength="60" x="934" y="601.6738">&#171;extends&#187;</text></g><!--link Cr?er une partie to Saisir pseudo--><g id="link_Cr&#233;er une partie_Saisir pseudo"><path d="M1192.53,543.56 C1208.2,548.58 1226.34,554.11 1243,558.48 C1400.33,599.76 1444.63,589.68 1601,634.48 C1618.16,639.4 1631.2415,643.9381 1646.6315,649.7881 " fill="none" id="Cr&#233;er une partie-to-Saisir pseudo" style="stroke:#181818;stroke-width:1.0;stroke-dasharray:7.0,7.0;"/><polygon fill="#181818" points="1652.24,651.92,1645.2485,644.9832,1647.5663,650.1434,1642.406,652.4612,1652.24,651.92" style="stroke:#181818;stroke-width:1.0;"/><text fill="#000000" font-family="sans-serif" font-size="13" lengthAdjust="spacing" textLength="60" x="1472" y="601.6738">&#171;extends&#187;</text></g><!--link uc to Se d?connecter--><g id="link_uc_Se d&#233;connecter"><path d="M1485.96,81.96 C1446.09,156.38 1361.1438,314.9714 1333.4038,366.7414 " fill="none" id="uc-to-Se d&#233;connecter" style="stroke:#181818;stroke-width:1.0;"/><polygon fill="#181818" points="1330.57,372.03,1338.3465,365.9863,1332.9315,367.6228,1331.295,362.2079,1330.57,372.03" style="stroke:#181818;stroke-width:1.0;"/></g><!--reverse link Saisir son pseudo to Se connecter--><g id="link_Saisir son pseudo_Se connecter"><path d="M1542.5744,408.5575 C1561.1044,417.9275 1579.71,427.33 1601,438.06 C1654.88,465.2 1717.95,496.84 1753,514.41 " fill="none" id="Saisir son pseudo-backto-Se connecter" style="stroke:#181818;stroke-width:1.0;stroke-dasharray:7.0,7.0;"/><polygon fill="#181818" points="1537.22,405.85,1543.4465,413.4809,1541.682,408.1063,1547.0566,406.3417,1537.22,405.85" style="stroke:#181818;stroke-width:1.0;"/><text fill="#000000" font-family="sans-serif" font-size="13" lengthAdjust="spacing" textLength="55" x="1661" y="466.5838">&#171;include&#187;</text></g><!--link uc to Saisir son pseudo--><g id="link_uc_Saisir son pseudo"><path d="M1506,81.96 C1506,155.86 1506,311.97 1506,364.93 " fill="none" id="uc-to-Saisir son pseudo" style="stroke:#181818;stroke-width:1.0;"/><polygon fill="#181818" points="1506,370.93,1510,361.93,1506,365.93,1502,361.93,1506,370.93" style="stroke:#181818;stroke-width:1.0;"/></g><!--reverse link Supprimer son compte to Se connecter--><g id="link_Supprimer son compte_Se connecter"><path d="M1720.9381,414.8181 C1735.5181,442.7281 1759.26,488.2 1772.31,513.21 " fill="none" id="Supprimer son compte-backto-Se connecter" style="stroke:#181818;stroke-width:1.0;stroke-dasharray:7.0,7.0;"/><polygon fill="#181818" points="1718.16,409.5,1718.7818,419.3292,1720.4751,413.9317,1725.8726,415.625,1718.16,409.5" style="stroke:#181818;stroke-width:1.0;"/><text fill="#000000" font-family="sans-serif" font-size="13" lengthAdjust="spacing" textLength="55" x="1749" y="466.5838">&#171;include&#187;</text></g><!--link uc to Supprimer son compte--><g id="link_uc_Supprimer son compte"><path d="M1528,81.96 C1570.85,154.82 1661.0683,308.2381 1693.5383,363.4481 " fill="none" id="uc-to-Supprimer son compte" style="stroke:#181818;stroke-width:1.0;"/><polygon fill="#181818" points="1696.58,368.62,1695.4654,358.8344,1694.0453,364.3101,1688.5696,362.89,1696.58,368.62" style="stroke:#181818;stroke-width:1.0;"/></g><!--reverse link Acc?der ? la liste des scientifiques d?couverts to Se connecter--><g id="link_Acc&#233;der &#224; la liste des scientifiques d&#233;couverts_Se connecter"><path d="M1938.5631,425.2803 C1893.8231,454.2403 1835.05,492.3 1801.89,513.76 " fill="none" id="Acc&#233;der &#224; la liste des scientifiques d&#233;couverts-backto-Se connecter" style="stroke:#181818;stroke-width:1.0;stroke-dasharray:7.0,7.0;"/><polygon fill="#181818" points="1943.6,422.02,1933.8711,423.5526,1939.4026,424.737,1938.2182,430.2684,1943.6,422.02" style="stroke:#181818;stroke-width:1.0;"/><text fill="#000000" font-family="sans-serif" font-size="13" lengthAdjust="spacing" textLength="55" x="1893" y="466.5838">&#171;include&#187;</text></g><!--link uc to Acc?der ? la liste des scientifiques d?couverts--><g id="link_uc_Acc&#233;der &#224; la liste des scientifiques d&#233;couverts"><path d="M1560.36,81.94 C1578.13,94.21 1597.93,107.95 1616,120.6 C1736.29,204.84 1872.3681,301.8119 1942.9781,352.2619 " fill="none" id="uc-to-Acc&#233;der &#224; la liste des scientifiques d&#233;couverts" style="stroke:#181818;stroke-width:1.0;"/><polygon fill="#181818" points="1947.86,355.75,1942.8625,347.2633,1943.7917,352.8433,1938.2117,353.7725,1947.86,355.75" style="stroke:#181818;stroke-width:1.0;"/></g><!--reverse link Acc?der ? la liste des scientifiques d?couverts to Afficher la fiche d?taill? du scientifique--><g id="link_Acc&#233;der &#224; la liste des scientifiques d&#233;couverts_Afficher la fiche d&#233;taill&#233; du scientifique"><path d="M1999.9003,429.6809 C2003.9303,452.8009 2008.18,477.24 2012,499.21 " fill="none" id="Acc&#233;der &#224; la liste des scientifiques d&#233;couverts-backto-Afficher la fiche d&#233;taill&#233; du scientifique" style="stroke:#181818;stroke-width:1.0;stroke-dasharray:7.0,7.0;"/><polygon fill="#181818" points="1998.87,423.77,1996.4749,433.3232,1999.7286,428.6957,2004.3561,431.9494,1998.87,423.77" style="stroke:#181818;stroke-width:1.0;"/><text fill="#000000" font-family="sans-serif" font-size="13" lengthAdjust="spacing" textLength="60" x="2007" y="466.5838">&#171;extends&#187;</text></g><!--link admin to Se d?connecter du panel--><g id="link_admin_Se d&#233;connecter du panel"><path d="M2654.06,51.38 C2597.08,61.11 2498.06,82.18 2421,120.6 C2384.84,138.63 2353.3669,164.8282 2331.5369,184.9982 " fill="none" id="admin-to-Se d&#233;connecter du panel" style="stroke:#181818;stroke-width:1.0;"/><polygon fill="#181818" points="2327.13,189.07,2336.4548,185.9003,2330.8024,185.6769,2331.0258,180.0244,2327.13,189.07" style="stroke:#181818;stroke-width:1.0;"/></g><!--link admin to Lister les scientifiques--><g id="link_admin_Lister les scientifiques"><path d="M2660.74,82.01 C2625.25,115.88 2578.8003,160.2074 2551.1403,186.6074 " fill="none" id="admin-to-Lister les scientifiques" style="stroke:#181818;stroke-width:1.0;"/><polygon fill="#181818" points="2546.8,190.75,2556.0723,187.4296,2550.417,187.2978,2550.5488,181.6425,2546.8,190.75" style="stroke:#181818;stroke-width:1.0;"/></g><!--reverse link Lister les scientifiques to Se connecter en tant qu'admin--><g id="link_Lister les scientifiques_Se connecter en tant qu'admin"><path d="M2569.2164,231.6655 C2589.3764,240.8855 2609.52,249.45 2633,257.68 C2676.24,272.85 2789.73,293.99 2832,311.68 C2866.6,326.16 2903.27,348.18 2928.99,364.86 " fill="none" id="Lister les scientifiques-backto-Se connecter en tant qu'admin" style="stroke:#181818;stroke-width:1.0;stroke-dasharray:7.0,7.0;"/><polygon fill="#181818" points="2563.76,229.17,2570.281,236.5508,2568.307,231.2495,2573.6083,229.2756,2563.76,229.17" style="stroke:#181818;stroke-width:1.0;"/><text fill="#000000" font-family="sans-serif" font-size="13" lengthAdjust="spacing" textLength="55" x="2807" y="300.8738">&#171;include&#187;</text></g><!--reverse link Lister les scientifiques to Ajouter Scientifique--><g id="link_Lister les scientifiques_Ajouter Scientifique"><path d="M2500.0446,234.3897 C2459.2946,268.7797 2378.11,337.31 2338.65,370.6 " fill="none" id="Lister les scientifiques-backto-Ajouter Scientifique" style="stroke:#181818;stroke-width:1.0;stroke-dasharray:7.0,7.0;"/><polygon fill="#181818" points="2504.63,230.52,2495.1722,233.2676,2500.8089,233.7447,2500.3318,239.3814,2504.63,230.52" style="stroke:#181818;stroke-width:1.0;"/><text fill="#000000" font-family="sans-serif" font-size="13" lengthAdjust="spacing" textLength="60" x="2436" y="300.8738">&#171;extends&#187;</text></g><!--reverse link Lister les scientifiques to Modifier Scientifique--><g id="link_Lister les scientifiques_Modifier Scientifique"><path d="M2525.55,237.1804 C2523.6,271.5404 2519.93,336.27 2518.04,369.72 " fill="none" id="Lister les scientifiques-backto-Modifier Scientifique" style="stroke:#181818;stroke-width:1.0;stroke-dasharray:7.0,7.0;"/><polygon fill="#181818" points="2525.89,231.19,2521.3865,239.9489,2525.6067,236.182,2529.3736,240.4022,2525.89,231.19" style="stroke:#181818;stroke-width:1.0;"/><text fill="#000000" font-family="sans-serif" font-size="13" lengthAdjust="spacing" textLength="60" x="2523" y="300.8738">&#171;extends&#187;</text></g><!--reverse link Lister les scientifiques to Supprimer Scientifique--><g id="link_Lister les scientifiques_Supprimer Scientifique"><path d="M2552.6702,234.511 C2590.6802,268.371 2665.55,335.07 2703.66,369.03 " fill="none" id="Lister les scientifiques-backto-Supprimer Scientifique" style="stroke:#181818;stroke-width:1.0;stroke-dasharray:7.0,7.0;"/><polygon fill="#181818" points="2548.19,230.52,2552.2496,239.4933,2551.9235,233.8458,2557.5709,233.5197,2548.19,230.52" style="stroke:#181818;stroke-width:1.0;"/><text fill="#000000" font-family="sans-serif" font-size="13" lengthAdjust="spacing" textLength="60" x="2627" y="300.8738">&#171;extends&#187;</text></g><!--link admin to Lister les scientifiques qui posent le plus de probl?mes aux joueurs--><g id="link_admin_Lister les scientifiques qui posent le plus de probl&#232;mes aux joueurs"><path d="M2739.48,82.01 C2765.25,106.46 2794.6871,134.3906 2821.9571,160.2606 " fill="none" id="admin-to-Lister les scientifiques qui posent le plus de probl&#232;mes aux joueurs" style="stroke:#181818;stroke-width:1.0;"/><polygon fill="#181818" points="2826.31,164.39,2822.5336,155.2939,2822.6826,160.9488,2817.0277,161.0978,2826.31,164.39" style="stroke:#181818;stroke-width:1.0;"/></g><!--reverse link Lister les scientifiques qui posent le plus de probl?mes aux joueurs to Se connecter en tant qu'admin--><g id="link_Lister les scientifiques qui posent le plus de probl&#232;mes aux joueurs_Se connecter en tant qu'admin"><path d="M2871.6641,264.1228 C2872.4041,279.2028 2874.68,289.66 2881,303.68 C2892,328.07 2913.21,349.59 2931.31,364.79 " fill="none" id="Lister les scientifiques qui posent le plus de probl&#232;mes aux joueurs-backto-Se connecter en tant qu'admin" style="stroke:#181818;stroke-width:1.0;stroke-dasharray:7.0,7.0;"/><polygon fill="#181818" points="2871.37,258.13,2867.8159,267.3152,2871.6151,263.124,2875.8063,266.9231,2871.37,258.13" style="stroke:#181818;stroke-width:1.0;"/><text fill="#000000" font-family="sans-serif" font-size="13" lengthAdjust="spacing" textLength="55" x="2882" y="300.8738">&#171;include&#187;</text></g><!--link admin to Lister les statistiques d'utilisation des jeux--><g id="link_admin_Lister les statistiques d'utilisation des jeux"><path d="M2745.74,48.15 C2823.53,55.3 2985.72,74.78 3115,120.6 C3157.25,135.57 3196.5696,157.3799 3228.3496,177.0699 " fill="none" id="admin-to-Lister les statistiques d'utilisation des jeux" style="stroke:#181818;stroke-width:1.0;"/><polygon fill="#181818" points="3233.45,180.23,3227.9061,172.0896,3229.1997,177.5966,3223.6927,178.8902,3233.45,180.23" style="stroke:#181818;stroke-width:1.0;"/></g><!--reverse link Lister les statistiques d'utilisation des jeux to Se connecter en tant qu'admin--><g id="link_Lister les statistiques d'utilisation des jeux_Se connecter en tant qu'admin"><path d="M3221.1048,243.5014 C3158.7948,278.3914 3060.58,333.39 3003.66,365.27 " fill="none" id="Lister les statistiques d'utilisation des jeux-backto-Se connecter en tant qu'admin" style="stroke:#181818;stroke-width:1.0;stroke-dasharray:7.0,7.0;"/><polygon fill="#181818" points="3226.34,240.57,3216.533,241.477,3221.9774,243.0128,3220.4415,248.4572,3226.34,240.57" style="stroke:#181818;stroke-width:1.0;"/><text fill="#000000" font-family="sans-serif" font-size="13" lengthAdjust="spacing" textLength="55" x="3140" y="300.8738">&#171;include&#187;</text></g><!--SRC=[fLRDZk8m3BxtAImk30TuW0eX8QupqcWH3v1D3MGs99tye95czrtsjjldw8kjavOEbB8Ku8GS-xFznP_JTEM459Ovz2O5Pi4dwP49s1uvSBtB7LR7F4ddsKueOPtvYcB1b2IUm_JdU4mWEUC_s0RXXJp7R-W_FfC4wETXF9x1qpTyqq9b1i4hX9mP9x3AvHMbon2oeL1xuPWJMesEG-USbqM61ihV81bGfOwyqKB8SkAvHE2cBCWrWeOUJiuNMosiYASKMnsrZLK_JtohWv7gMhFoZrR0P5amfuN1Qt7HcZ5bcsf7IN8XPZ8Xuw7a0oyZI64w5OfBd-5iLeUUUyNeJLceiZ27djj4zeIQJ8WUhjLQR7p0eihTjYns1FBkAxOj5wYSM0U3hN3nmw7AR6_S09k9zLfmBrrPF0Zxp1JluArdz9B5cyWj-aot8sEeqZHdWrTDef13VoGHwaSX3msaKDdHq4rZ3KRoi9eBEgQ1jVemYOCWcu3v6htwfo243JDqiR9D5sHbmRNVet4MSggTAHSuhkKLPx2ZWDMYIRvQG1YYSoeRZwhQw7LAMIrltaWl5XFBHbDhf8u8DHo8ZaCRXDguTeneWteMN-FwF3TYX-QelLkXko0gz8iBvoBvD-Q-8y63bSs3wBQLiEE_uEEOa3B8q9_4jyNmAscM-w3Pxd3q9j2U6Np60kEhq3aG8KdE5CfHs_4vD67EXxjk-UBnEUM02boGmBiVnWITs-yAuFnD-t2-F6QaOwzSWNdHjEZ4upXVOte5g0UZn8k0N5iCMuAKBhqD3rnkz7TP_jsH0wEBfVvf0rsZ_pQiE-xgVqs5jyswUjQRlKbZsFeiQ3VG8-wEIaaVoJy0]--></g></svg>